
<!DOCTYPE svg PUBLIC "-//W3C//DTD SVG 20010904//EN"
 "http://www.w3.org/TR/2001/REC-SVG-20010904/DTD/svg10.dtd">
<svg version="1.0" xmlns="http://www.w3.org/2000/svg"
 width="512.000000pt" height="512.000000pt" viewBox="0 0 512.000000 512.000000"
 preserveAspectRatio="xMidYMid meet">

<g transform="translate(0.000000,512.000000) scale(0.100000,-0.100000)"
fill="#000000" stroke="none">
<path d="M2618 4900 c-180 -31 -220 -86 -224 -302 -1 -70 -5 -136 -9 -148 -20
-64 26 -121 76 -96 22 10 25 20 30 101 13 179 85 298 208 347 82 32 229 32
289 0 24 -12 41 -18 37 -12 -4 6 -38 26 -76 46 -110 55 -239 80 -331 64z"/>
<path d="M2381 4781 c-22 -22 -45 -49 -51 -61 -10 -19 -9 -20 17 -14 15 4 30
8 32 10 7 6 50 104 46 104 -3 0 -23 -18 -44 -39z"/>
<path d="M2838 4813 c6 -2 18 -2 25 0 6 3 1 5 -13 5 -14 0 -19 -2 -12 -5z"/>
<path d="M2706 4785 c-76 -31 -109 -64 -152 -150 -46 -93 -56 -172 -26 -210
12 -15 24 -42 28 -61 4 -24 15 -39 35 -49 41 -22 49 -18 12 6 -20 13 -34 31
-38 52 -4 18 -16 42 -27 54 -18 19 -20 30 -14 75 19 141 118 257 249 293 41
11 45 14 22 14 -16 0 -56 -10 -89 -24z"/>
<path d="M2743 4774 c-95 -35 -181 -145 -202 -257 -10 -53 -9 -59 14 -93 14
-20 25 -47 25 -59 0 -15 11 -26 35 -38 45 -21 207 -54 313 -63 98 -8 106 -3
145 84 32 72 43 166 28 259 -23 149 -55 175 -216 180 -71 2 -112 -2 -142 -13z"/>
<path d="M2323 4671 c-42 -26 -58 -96 -44 -196 10 -66 13 -72 60 -115 27 -25
54 -54 60 -65 10 -19 10 -19 11 3 0 13 -10 36 -22 52 -13 19 -21 42 -19 62 1
18 4 88 7 156 6 135 4 137 -53 103z"/>
<path d="M2501 4382 c-8 -18 -26 -37 -43 -44 -25 -11 -29 -17 -24 -42 3 -16 6
-32 6 -36 0 -13 149 -66 263 -94 57 -14 134 -26 169 -26 59 0 66 2 96 33 18
18 32 35 32 39 0 3 -39 8 -87 11 -95 6 -310 56 -349 82 -16 10 -24 25 -24 43
0 16 -6 36 -13 46 -13 17 -14 16 -26 -12z"/>
<path d="M2367 4306 c5 -14 3 -17 -6 -12 -9 6 -12 2 -9 -14 3 -26 113 -94 136
-85 7 3 11 1 8 -4 -3 -5 4 -8 17 -8 12 1 33 -2 47 -6 14 -4 5 2 -19 13 -96 44
-111 53 -133 74 -13 12 -28 31 -35 42 -12 18 -12 18 -6 0z"/>
<path d="M2655 4290 c11 -5 27 -9 35 -9 9 0 8 4 -5 9 -11 5 -27 9 -35 9 -9 0
-8 -4 5 -9z"/>
<path d="M2765 4264 c33 -7 103 -16 155 -18 l95 -5 -81 9 c-45 5 -107 13 -139
19 -82 15 -102 12 -30 -5z"/>
<path d="M2340 4222 c0 -12 18 -24 61 -41 33 -13 58 -25 56 -27 -2 -3 -30 5
-61 17 -41 16 -60 19 -68 11 -8 -8 -3 -13 18 -18 16 -3 88 -24 159 -46 72 -22
142 -41 156 -42 14 -2 31 -6 37 -10 7 -4 22 -4 34 0 17 5 7 10 -45 24 -37 9
-73 22 -79 28 -7 7 13 4 44 -7 65 -22 111 -29 118 -17 3 5 -43 22 -102 37 -59
15 -117 33 -128 39 -11 6 -25 8 -30 5 -5 -3 -41 10 -81 30 -83 40 -89 41 -89
17z"/>
<path d="M2109 4152 c-75 -39 -112 -100 -117 -194 l-4 -70 39 42 c39 43 40 43
79 30 122 -39 296 -114 308 -133 14 -22 36 -282 36 -419 0 -56 -3 -69 -19 -77
-35 -19 -183 15 -284 66 -27 13 -51 22 -54 20 -11 -12 41 -90 78 -117 82 -59
250 -109 384 -113 l60 -2 0 35 c0 24 -5 35 -15 36 -8 1 -20 2 -27 2 -16 3 -30
51 -43 145 -27 208 5 362 99 460 34 37 101 81 87 58 -9 -14 -9 -14 49 9 44 18
34 20 -22 5 -10 -3 -2 2 17 11 22 11 62 17 107 18 40 1 73 2 73 3 0 0 -20 13
-44 27 -87 51 -213 51 -326 0 l-61 -27 -107 26 c-59 15 -141 40 -182 56 -92
35 -96 52 -25 98 l50 33 -41 0 c-26 0 -62 -11 -95 -28z"/>
<path d="M2215 4132 c-27 -15 -49 -31 -47 -37 3 -12 160 -66 265 -90 l76 -18
59 26 c33 15 67 27 76 27 63 0 -45 40 -269 101 -91 24 -101 24 -160 -9z"/>
<path d="M1964 4039 l-28 -41 -1 -173 c0 -95 -3 -171 -6 -169 -10 6 -29 -112
-29 -172 0 -44 13 -102 36 -158 5 -13 4 -17 -4 -12 -6 3 -13 -3 -17 -15 -11
-35 5 -111 35 -164 15 -27 30 -70 34 -93 12 -81 62 -152 107 -152 9 0 28 9 43
21 31 24 34 60 9 109 -15 31 -15 37 2 89 9 31 19 61 21 68 4 18 -26 127 -41
143 -8 9 -26 41 -40 72 -14 31 -32 61 -40 68 -8 6 -19 28 -26 48 -6 20 -25 50
-41 66 -15 16 -26 32 -22 35 3 3 10 -2 15 -12 20 -34 26 -16 11 36 -10 36 -14
100 -14 204 1 130 4 160 21 198 25 56 13 58 -25 4z m146 -814 c-21 -34 -66
-65 -92 -65 -7 1 3 9 22 20 19 10 46 37 60 59 14 23 26 37 28 31 2 -5 -6 -26
-18 -45z"/>
<path d="M2032 3915 c-67 -76 -67 -162 0 -363 30 -88 34 -95 77 -120 56 -33
182 -78 244 -87 l46 -7 -19 38 c-37 74 -52 162 -48 263 3 83 8 102 31 138 15
24 27 46 27 51 0 13 -283 122 -316 122 -6 0 -26 -16 -42 -35z"/>
<path d="M2773 3919 c-67 -26 -125 -85 -165 -168 -30 -61 -33 -75 -36 -186 -1
-66 3 -156 10 -200 12 -76 14 -80 41 -83 26 -3 27 -2 27 45 0 26 -9 77 -20
111 -11 35 -20 76 -20 90 0 15 -7 45 -15 67 -17 48 -18 65 -5 65 6 0 10 -12
10 -27 0 -42 15 -15 30 52 12 58 37 121 46 113 2 -2 -6 -29 -17 -59 -13 -32
-23 -88 -26 -139 -5 -79 -3 -93 32 -193 20 -60 34 -112 30 -115 -3 -4 -10 0
-14 7 -23 36 -19 -117 5 -209 10 -39 -12 -12 -25 30 -11 38 -11 25 5 -140 7
-74 32 -115 95 -157 22 -14 37 -28 35 -30 -7 -7 -58 23 -88 51 -26 23 -28 24
-28 5 0 -23 78 -102 124 -126 39 -20 147 -28 205 -15 33 8 41 8 32 -1 -8 -8
-49 -12 -114 -12 -104 1 -142 11 -189 53 -31 27 -19 -5 15 -41 65 -69 213 -85
328 -35 56 23 139 107 139 139 0 24 -27 86 -42 95 -5 3 -15 -2 -22 -11 -11
-15 -12 2 -11 96 2 79 -4 142 -16 204 -10 50 -19 128 -19 175 0 47 -3 95 -6
107 -6 22 -7 21 -31 -7 -14 -17 -30 -30 -36 -30 -6 0 1 13 16 28 20 21 27 38
27 68 0 52 -6 57 -44 37 -17 -9 -62 -18 -100 -21 -86 -6 -96 4 -96 94 l0 62
83 11 c45 7 99 17 120 22 33 9 37 13 31 32 -21 69 -42 89 -111 107 l-38 9 38
-2 c44 -3 46 4 11 32 -35 28 -129 28 -201 0z m51 -477 c55 -51 122 -82 179
-83 41 -1 42 -1 13 -11 -50 -18 -129 14 -199 81 -61 57 -117 126 -117 143 0 6
17 -12 38 -39 22 -26 60 -67 86 -91z m-14 -443 c23 -12 72 -26 110 -32 73 -12
87 -22 45 -33 -48 -12 -186 38 -199 73 -7 17 -4 17 44 -8z"/>
<path d="M2648 3863 c-26 -27 -59 -73 -73 -105 -28 -62 -48 -192 -39 -266 15
-138 27 -212 33 -212 4 0 2 33 -5 73 -17 95 -17 259 0 322 19 73 58 145 105
193 23 23 37 42 33 42 -4 0 -29 -21 -54 -47z"/>
<path d="M2377 3768 c-25 -42 -28 -55 -28 -140 0 -93 17 -180 48 -250 16 -38
27 -46 38 -28 6 9 -10 291 -23 405 l-7 60 -28 -47z"/>
<path d="M2950 3711 l-95 -17 -3 -47 c-4 -65 10 -87 57 -87 37 0 124 22 149
39 8 4 16 35 19 70 7 71 19 67 -127 42z"/>
<path d="M2164 3267 c17 -61 17 -98 1 -152 -9 -32 -14 -68 -11 -79 7 -28 54
-72 86 -81 24 -7 25 -7 5 9 -20 17 -19 17 5 11 14 -4 48 -18 75 -33 39 -20 69
-26 135 -30 63 -3 97 -11 132 -28 26 -13 52 -24 58 -24 12 0 7 93 -12 201
l-11 66 -42 -5 c-25 -2 -45 0 -49 7 -5 7 7 11 38 11 76 0 51 17 -34 23 -87 7
-262 60 -339 102 l-43 25 6 -23z m186 -156 c36 -11 78 -22 94 -26 15 -3 26 -8
24 -11 -7 -7 -155 33 -185 51 -15 9 -21 14 -13 11 8 -3 44 -14 80 -25z m83
-50 c101 -27 131 -45 50 -30 -83 16 -223 68 -223 84 0 3 17 -2 38 -11 20 -10
81 -29 135 -43z"/>
<path d="M2170 2945 c1 -26 2 -28 11 -12 8 14 8 22 0 30 -8 8 -11 3 -11 -18z"/>
<path d="M2200 2921 c0 -16 5 -33 10 -36 6 -4 10 6 10 24 0 16 -4 33 -10 36
-6 4 -10 -6 -10 -24z"/>
<path d="M2236 2921 c-11 -17 12 -58 35 -64 28 -8 26 -10 34 36 l7 37 -35 0
c-20 0 -38 -4 -41 -9z"/>
<path d="M2322 2879 c2 -24 7 -43 12 -42 15 4 13 76 -2 81 -10 3 -12 -7 -10
-39z"/>
<path d="M2360 2861 c0 -35 3 -39 31 -45 55 -11 59 -9 59 33 0 35 -3 39 -31
45 -55 11 -59 9 -59 -33z"/>
<path d="M2140 2836 c-30 -75 -37 -143 -27 -276 17 -224 14 -433 -10 -600 -12
-85 -26 -191 -31 -236 -7 -58 -20 -104 -47 -165 -35 -77 -39 -93 -43 -194 -5
-105 -6 -108 -17 -66 l-11 45 -28 -63 c-39 -88 -32 -117 47 -196 74 -72 108
-85 233 -85 119 0 153 17 169 83 7 26 11 47 10 47 -1 0 -17 -7 -35 -16 -23
-12 -48 -15 -89 -11 -57 5 -131 33 -131 50 0 5 6 6 13 3 115 -48 172 -43 236
20 l44 44 -9 58 c-5 31 -8 113 -8 182 l0 126 -42 -42 c-24 -23 -60 -49 -81
-59 -53 -26 -132 -31 -158 -11 -19 15 -17 16 31 10 68 -8 132 20 202 89 l52
51 0 97 c0 105 -23 344 -40 424 -9 40 -19 56 -50 79 -22 17 -40 34 -40 39 0
10 17 1 49 -27 l23 -21 -22 44 c-12 24 -42 62 -66 84 -56 51 -49 62 9 15 50
-42 90 -111 112 -194 21 -79 45 -306 45 -429 0 -55 4 -115 10 -134 7 -25 6
-37 -4 -47 -9 -8 -17 -48 -21 -96 -7 -89 5 -142 45 -198 26 -36 26 -48 0 -25
-23 21 -19 27 -51 -93 -25 -97 -21 -190 9 -232 30 -40 109 -89 184 -111 93
-29 188 -23 294 17 141 53 177 121 155 294 -6 47 -13 115 -17 152 -4 43 -10
65 -17 61 -7 -4 -8 7 -3 33 19 99 23 144 15 204 -13 100 -10 209 6 270 15 56
20 212 9 269 -6 29 -9 31 -49 31 -62 0 -73 18 -50 82 14 39 16 66 11 125 -5
64 -14 91 -58 180 -49 98 -57 107 -106 136 -40 22 -61 42 -80 78 l-27 49 -50
-5 c-110 -11 -271 24 -406 89 -31 14 -58 26 -61 26 -3 0 -16 -24 -28 -54z
m156 -248 c0 -73 2 -155 6 -183 l7 -50 -16 35 c-21 46 -29 206 -14 276 7 30
14 54 15 54 2 0 3 -60 2 -132z m446 -372 c100 -1 117 -8 73 -28 -34 -15 -136
4 -279 52 -136 46 -146 50 -146 59 0 4 57 -13 128 -37 115 -41 136 -45 224
-46z m163 -25 c-12 -11 -75 -25 -75 -17 0 3 15 10 33 15 43 12 53 13 42 2z
m-753 -478 c12 -13 19 -23 16 -23 -34 0 -68 50 -67 97 0 26 2 25 15 -12 8 -21
24 -49 36 -62z m812 -44 c-25 -28 -92 -66 -129 -74 -19 -4 -8 4 30 24 33 16
71 41 85 55 28 31 42 26 14 -5z m-427 -193 c58 -62 91 -77 192 -85 l86 -7 -38
-13 c-23 -8 -65 -12 -102 -9 -76 5 -128 35 -180 106 -63 86 -36 92 42 8z m408
-262 c-16 -14 -59 -40 -95 -57 -58 -28 -76 -32 -160 -34 l-95 -1 90 8 c94 8
192 43 245 88 14 12 30 21 35 21 6 0 -3 -11 -20 -25z"/>
<path d="M2466 2859 c-9 -47 -7 -59 9 -59 9 0 15 9 15 23 0 12 3 32 6 45 5 15
2 22 -9 22 -8 0 -17 -13 -21 -31z"/>
<path d="M2506 2849 c-8 -52 -3 -59 45 -59 l41 0 -7 43 c-8 45 -18 57 -51 57
-17 0 -23 -8 -28 -41z"/>
<path d="M2060 2864 c0 -12 33 -84 39 -84 6 0 34 63 28 65 -40 15 -67 22 -67
19z"/>
<path d="M2601 2825 c1 -40 1 -40 10 -10 5 18 5 33 -1 39 -7 7 -10 -4 -9 -29z"/>
<path d="M2630 2820 c0 -25 4 -30 25 -30 28 0 28 0 15 34 -14 37 -40 34 -40
-4z"/>
<path d="M3075 2645 c-22 -8 -77 -14 -122 -14 l-82 -1 33 -72 c21 -46 42 -78
57 -85 35 -19 108 -15 157 7 46 21 49 33 36 134 -7 51 -12 53 -79 31z"/>
<path d="M3125 2469 c-24 -11 -64 -19 -98 -19 l-59 0 7 -92 c6 -81 4 -100 -14
-147 -11 -30 -19 -56 -18 -58 2 -1 22 -5 45 -8 37 -5 43 -2 66 28 15 19 26 43
26 55 0 11 5 24 10 27 13 8 13 -1 -5 -59 -17 -55 -15 -61 13 -52 18 6 50 66
66 121 3 11 4 7 2 -10 -2 -16 -7 -41 -11 -55 -7 -25 -6 -25 20 5 26 28 27 33
22 105 -4 41 -12 98 -19 126 l-13 51 -40 -18z m-96 -283 c-29 -50 -33 -41 -6
15 12 25 23 40 25 33 2 -6 -7 -28 -19 -48z"/>
<path d="M2030 971 c0 -46 30 -235 38 -242 34 -30 199 -40 225 -14 9 8 18 29
22 47 3 18 15 72 27 121 12 48 19 89 17 91 -2 2 -32 -1 -67 -7 -50 -9 -79 -8
-145 5 -45 9 -90 19 -99 23 -15 6 -18 2 -18 -24z"/>
<path d="M2504 778 c6 -33 26 -186 26 -194 0 -2 19 -13 41 -25 44 -22 132 -35
171 -26 24 6 58 61 58 95 1 9 9 40 18 68 l18 51 -71 -1 c-78 0 -161 17 -217
45 -49 25 -50 24 -44 -13z"/>
<path d="M2051 673 c-33 -127 -41 -149 -38 -111 4 49 -9 39 -18 -14 -11 -64
-8 -117 9 -143 38 -58 277 -59 308 -2 11 20 6 146 -7 213 -7 30 -10 32 -108
56 -56 14 -110 29 -119 33 -13 5 -19 -1 -27 -32z"/>
<path d="M2530 550 c0 -5 8 -11 19 -15 10 -3 27 -15 37 -27 l19 -21 -33 17
c-19 10 -35 16 -37 14 -7 -8 -45 -189 -45 -215 0 -64 88 -97 223 -83 180 18
300 49 317 80 6 10 10 35 10 54 0 60 -60 103 -156 112 -53 5 -56 4 -51 -15 10
-38 -8 -21 -30 29 l-21 49 -38 -11 c-47 -13 -111 -5 -170 21 -24 11 -44 16
-44 11z"/>
</g>
</svg>
